<?xml version="1.0" standalone="no"?>
<!DOCTYPE svg PUBLIC "-//W3C//DTD SVG 20010904//EN"
 "http://www.w3.org/TR/2001/REC-SVG-20010904/DTD/svg10.dtd">
<svg version="1.0" xmlns="http://www.w3.org/2000/svg"
 width="1920.000000pt" height="1080.000000pt" viewBox="0 0 1920.000000 1080.000000"
 preserveAspectRatio="xMidYMid meet">

<g transform="translate(0.000000,1080.000000) scale(0.100000,-0.100000)"
fill="#000000" stroke="none">
<path d="M9190 6242 c-23 -5 -36 -13 -38 -25 -3 -15 0 -18 18 -12 13 4 70 7
127 7 91 -1 104 1 101 15 -2 13 -19 17 -88 19 -47 1 -101 -1 -120 -4z"/>
<path d="M10351 6148 c18 -38 39 -68 46 -68 7 0 -5 26 -27 62 -55 84 -58 85
-19 6z"/>
<path d="M10175 6110 c-4 -17 -5 -34 -2 -36 2 -3 7 10 11 27 3 18 4 34 2 36
-2 3 -7 -10 -11 -27z"/>
<path d="M8406 6066 c-3 -16 -5 -47 -5 -70 1 -22 4 -32 6 -21 3 18 11 20 86
18 85 -2 166 -9 227 -21 19 -3 51 -6 71 -5 l36 1 12 -103 c17 -155 61 -293
109 -347 13 -16 13 -18 0 -18 -8 0 -24 -10 -36 -23 -22 -23 -22 -29 -22 -321
l0 -297 25 -25 c14 -14 25 -30 25 -36 0 -6 -34 -141 -76 -299 l-75 -288 3
-150 3 -151 -698 0 -698 0 -24 -25 -25 -24 0 -1481 0 -1481 26 -26 c22 -22 31
-25 72 -20 26 3 337 25 692 49 626 41 646 43 668 65 l22 22 0 511 0 511 -25
24 -24 25 -386 0 -385 0 0 200 0 200 235 0 236 0 24 25 25 24 0 346 0 345 155
0 c153 0 156 0 181 25 l25 25 -3 314 c-3 273 -1 316 12 319 8 2 20 2 25 0 7
-2 9 -195 7 -558 l-2 -555 24 -25 c25 -25 25 -25 231 -25 l205 0 0 -57 c0 -32
-11 -366 -25 -743 -27 -746 -31 -1001 -15 -1030 22 -40 37 -41 318 -5 150 19
280 39 291 45 35 18 41 45 41 181 0 106 -37 1313 -53 1720 l-3 86 38 -9 c21
-4 51 -8 66 -7 15 0 59 -2 97 -6 39 -3 97 -8 130 -11 33 -2 89 -7 125 -9 36
-3 92 -8 125 -10 33 -2 86 -7 117 -11 52 -6 58 -4 82 19 l26 26 0 481 0 481
-25 24 -24 25 -418 0 -418 0 3 132 c3 125 -3 172 -97 796 -55 365 -105 670
-111 678 -7 7 -19 14 -26 14 -20 0 -18 7 20 53 43 54 64 95 91 181 l22 69 12
-67 c19 -110 47 -171 94 -210 100 -81 178 -99 397 -93 91 2 179 7 195 11 181
42 220 78 260 244 l18 74 19 -58 c16 -48 18 -65 9 -100 -7 -25 -11 -149 -11
-297 0 -330 15 -388 106 -423 36 -14 62 -16 137 -10 116 8 171 13 222 21 22 3
55 7 73 10 43 6 114 17 127 19 6 1 37 8 70 15 180 38 208 59 220 173 12 118
19 558 12 762 -2 53 -4 59 -24 62 -22 4 -23 2 -23 -89 0 -118 -18 -474 -25
-509 -5 -19 -18 -31 -53 -46 -144 -61 -689 -122 -737 -82 -32 27 -47 81 -52
194 -6 122 7 211 36 247 l17 22 197 -47 196 -47 -30 -48 c-16 -27 -29 -62 -29
-79 0 -28 4 -32 42 -43 45 -12 101 -7 123 11 24 20 35 107 35 270 l0 158 -227
4 c-210 3 -231 5 -269 25 -22 12 -46 29 -53 37 -8 9 -26 15 -42 14 l-28 -2 23
-31 c30 -38 79 -72 125 -85 20 -5 120 -10 224 -10 l187 0 0 -70 0 -69 -42 3
c-24 2 -43 5 -43 6 0 2 -42 6 -145 14 -30 2 -96 14 -147 26 -50 12 -98 20
-105 18 -19 -4 -96 77 -104 109 -5 18 -9 21 -15 11 -5 -7 -9 -21 -9 -30 0 -35
-59 -115 -98 -132 -20 -10 -44 -21 -52 -25 -8 -5 -28 -7 -43 -5 -15 1 -27 -1
-27 -5 0 -5 -11 -6 -25 -3 -14 2 -33 -2 -42 -9 -9 -8 -14 -9 -11 -4 4 7 -44 9
-138 8 -84 0 -142 3 -138 8 3 5 -1 9 -10 9 -8 0 -16 -5 -18 -12 -3 -7 -9 -8
-19 -3 -13 9 -37 13 -86 16 -13 1 -23 5 -23 10 0 5 -10 9 -23 9 -12 0 -54 19
-92 43 -66 41 -71 46 -89 103 -34 106 -31 103 -46 59 -14 -43 -17 -47 -75
-111 -34 -38 -89 -73 -130 -83 -5 -2 -16 -7 -22 -13 -7 -6 -13 -7 -13 -2 0 5
-4 3 -9 -4 -4 -7 -28 -15 -52 -18 -70 -8 -291 -10 -324 -3 -16 4 40 7 126 8
179 1 200 6 307 76 81 52 159 149 133 165 -23 14 -39 5 -74 -41 -23 -30 -62
-60 -118 -92 l-84 -47 -161 0 c-179 0 -214 8 -257 59 -14 17 -33 49 -43 71
-10 22 -23 40 -30 40 -7 0 -20 3 -29 6 -13 5 -15 2 -9 -22 19 -79 80 -160 149
-198 17 -10 22 -15 12 -12 -10 3 -25 6 -33 6 -7 0 -38 25 -68 55 -61 62 -99
148 -111 253 l-7 63 -37 -2 c-20 -2 -42 0 -48 4 -11 7 -164 19 -270 21 -60 1
-62 0 -67 -28z m2934 -526 c0 -29 -11 -50 -26 -50 -8 0 -14 5 -14 12 0 9 -3 9
-12 0 -25 -25 -29 -11 -7 27 16 28 26 37 40 34 11 -3 19 -13 19 -23z m-1720
-57 c0 -5 43 -298 96 -652 52 -354 94 -645 92 -646 -2 -2 -85 -6 -185 -10
l-183 -8 0 157 0 156 -155 0 -154 0 -3 -132 -3 -133 -134 -8 c-73 -4 -136 -5
-139 -2 -4 4 199 797 234 918 5 15 -3 17 -65 17 l-71 0 0 155 0 155 48 1 c26
0 162 9 302 18 313 23 320 23 320 14z m-230 -1448 l0 -125 -110 0 -110 0 10
26 c6 14 10 68 10 119 l0 94 53 4 c28 2 73 4 100 5 l47 2 0 -125z m-560 -345
l0 -160 -555 0 -555 0 0 -135 0 -135 378 -2 377 -3 0 -235 0 -235 -257 -3
-258 -2 0 -149 c0 -81 -3 -256 -7 -389 l-6 -242 411 0 412 0 0 -365 c0 -285
-3 -365 -12 -365 -7 0 -308 -20 -668 -45 -360 -25 -661 -45 -667 -45 -10 0
-13 274 -13 1335 l0 1335 710 0 710 0 0 -160z m1860 -175 l0 -335 -37 0 c-21
0 -202 14 -403 30 -200 16 -366 27 -369 25 -4 -5 3 -246 40 -1374 10 -333 16
-608 12 -611 -10 -8 -524 -72 -530 -66 -4 4 34 1192 53 1694 l7 162 -237 0
-236 0 0 405 0 405 850 0 850 0 0 -335z"/>
<path d="M9354 5213 l-40 -4 -32 -241 c-17 -133 -30 -243 -28 -245 2 -2 70 0
152 4 l150 8 -51 240 -50 240 -30 1 c-17 1 -48 -1 -71 -3z m66 -361 c18 -65
15 -72 -31 -72 l-41 0 7 53 c11 77 46 87 65 19z"/>
<path d="M7530 6032 c-91 -5 -110 -11 -110 -36 0 -24 0 -24 138 -25 116 -1
139 -3 150 -18 11 -15 12 -13 12 13 0 16 -3 39 -6 51 -7 24 -16 25 -184 15z"/>
<path d="M12686 5972 c-4 -7 -6 -74 -5 -150 l2 -137 -31 1 c-18 0 -72 1 -122
2 l-90 2 0 135 0 135 -26 -2 -25 -2 3 -143 c4 -185 -4 -177 173 -181 127 -3
135 -2 156 19 20 20 21 27 15 113 -4 50 -7 117 -6 150 1 48 -2 58 -14 53 -8
-3 -16 -1 -19 6 -2 8 -5 8 -11 -1z"/>
<path d="M11770 5875 c0 -82 3 -98 20 -115 11 -11 30 -20 43 -20 46 0 200 39
216 54 11 12 16 40 19 97 3 79 2 80 -20 77 -20 -3 -24 -10 -28 -65 -3 -34 -9
-65 -13 -70 -11 -10 -169 -43 -179 -36 -5 2 -8 41 -8 86 0 81 -1 83 -25 85
l-25 2 0 -95z"/>
<path d="M10649 5910 c-38 -88 -124 -119 -354 -127 -200 -7 -275 5 -356 60
-37 24 -67 52 -75 71 -7 17 -13 25 -14 18 0 -8 -5 -10 -12 -5 -28 17 -36 12
-27 -19 15 -52 66 -102 149 -145 l55 -28 225 0 c249 0 301 8 374 57 49 32 79
73 94 130 10 36 9 38 -15 36 -19 -2 -29 -13 -44 -48z"/>
<path d="M8391 5928 c0 -10 -6 -18 -12 -18 -5 0 -7 6 -3 13 5 7 0 6 -11 -3
-10 -8 -21 -13 -24 -10 -3 3 -7 -15 -9 -40 -1 -25 -5 -60 -8 -79 l-5 -34 -102
7 c-56 4 -103 9 -106 11 -2 2 -6 35 -8 72 l-5 68 -45 1 -44 1 2 -116 2 -116
-119 4 c-65 2 -120 4 -121 5 -1 1 -3 52 -4 114 -1 111 -1 112 -25 110 l-24 -2
0 -237 c0 -241 7 -294 38 -303 10 -3 72 -8 139 -12 121 -6 121 -6 147 19 17
17 26 37 26 57 0 28 2 30 20 20 23 -13 211 -24 246 -16 14 4 26 18 33 38 12
38 35 401 28 438 -2 14 -5 17 -6 8z m-4 -105 c-3 -10 -5 -4 -5 12 0 17 2 24 5
18 2 -7 2 -21 0 -30z"/>
<path d="M6716 5899 c-3 -17 -6 -51 -6 -75 l0 -44 -115 0 -115 0 0 70 c0 69
-3 76 -34 64 -26 -10 -22 -133 4 -162 19 -20 30 -22 150 -22 166 0 172 4 168
118 -3 70 -5 77 -24 80 -17 2 -23 -4 -28 -29z"/>
<path d="M7100 5855 c0 -89 16 -115 68 -115 65 1 204 36 219 56 12 16 13 15
13 -11 0 -29 -38 -74 -64 -76 -29 -2 -77 -11 -134 -25 -58 -14 -64 -14 -80 2
-16 17 -17 14 -20 -62 -4 -97 2 -119 32 -140 22 -14 33 -14 128 6 57 12 109
28 117 35 33 31 38 384 5 371 -7 -3 -16 0 -20 6 -5 7 -2 8 6 3 9 -5 11 -4 6 4
-11 18 -26 3 -26 -28 0 -42 -19 -57 -90 -70 -36 -7 -75 -15 -87 -18 -22 -5
-23 -3 -23 63 0 67 -1 69 -25 69 -24 0 -25 -2 -25 -70z"/>
<path d="M7413 5885 c0 -22 2 -30 4 -17 2 12 2 30 0 40 -3 9 -5 -1 -4 -23z"/>
<path d="M6730 5625 c-14 -8 -41 -16 -60 -18 -19 -3 -35 -6 -35 -7 0 -3 -40
-9 -98 -14 -32 -3 -63 -8 -67 -11 -5 -3 -11 -1 -15 5 -14 22 -25 8 -25 -30 0
-30 7 -47 25 -65 23 -24 30 -25 145 -25 115 0 122 1 145 25 22 21 25 33 25 90
0 69 -1 70 -40 50z"/>
<path d="M11770 5580 c0 -105 26 -119 163 -89 56 12 107 27 114 33 7 6 15 31
18 56 4 28 3 40 -2 32 -10 -13 -62 -19 -187 -23 -61 -2 -72 1 -88 21 -18 22
-18 22 -18 -30z"/>
<path d="M12392 5462 c8 -82 19 -89 170 -97 127 -7 127 -7 152 19 29 28 39
100 12 76 -10 -8 -33 -9 -68 -5 -29 3 -93 8 -142 9 -80 3 -92 6 -109 27 l-20
24 5 -53z"/>
<path d="M3301 3899 c-12 -5 -26 -20 -31 -34 -17 -45 -11 -347 31 -1680 40
-1275 41 -1290 62 -1313 l21 -23 658 3 c615 3 658 4 675 21 17 16 18 54 21
539 3 564 3 560 -51 573 -12 3 -208 -30 -434 -73 -349 -66 -413 -76 -413 -63
0 9 16 356 35 771 19 415 35 837 35 937 0 176 -1 183 -22 203 -13 11 -32 23
-43 25 -11 3 -77 18 -146 35 -69 16 -157 36 -195 45 -38 8 -94 21 -125 28 -33
8 -65 10 -78 6z m289 -112 l265 -62 -2 -55 c-2 -30 -22 -470 -45 -978 -22
-507 -39 -924 -37 -927 3 -2 205 34 449 80 245 47 448 85 453 85 4 0 7 -169 7
-375 l0 -375 -639 0 -639 0 -6 123 c-7 123 -61 1833 -71 2222 -3 116 -8 236
-11 268 -3 31 -1 57 3 57 4 -1 127 -29 273 -63z"/>
<path d="M4961 3863 c-26 -26 -76 -79 -110 -117 l-61 -68 0 -155 c0 -128 5
-185 31 -330 16 -96 34 -185 38 -196 5 -12 0 -458 -11 -992 -10 -533 -16 -989
-13 -1011 10 -74 4 -72 400 -110 370 -35 383 -34 405 6 23 43 9 321 -60 1166
-38 475 -70 875 -70 889 0 20 7 29 30 36 22 8 32 20 40 47 15 56 13 760 -3
791 -16 33 -40 38 -277 61 -113 11 -224 22 -248 26 -41 5 -45 3 -91 -43z m288
-33 c119 -11 231 -23 249 -26 l32 -5 -2 -252 -3 -252 -304 -8 c-167 -4 -306
-5 -309 -2 -3 2 -19 87 -37 187 l-32 183 90 98 c49 53 92 97 95 97 3 0 102 -9
221 -20z m192 -839 c4 -3 16 -125 28 -271 11 -146 44 -550 71 -899 28 -348 49
-635 47 -638 -5 -4 -664 56 -685 63 -11 3 -12 24 -8 91 3 49 11 439 17 868 6
429 12 786 15 793 3 10 56 11 256 6 139 -4 256 -9 259 -13z"/>
<path d="M5715 3885 l-25 -24 0 -1465 c0 -934 4 -1474 10 -1491 5 -14 20 -29
33 -34 12 -5 138 -11 280 -12 235 -4 258 -3 274 14 17 17 18 56 21 607 l2 590
165 2 c90 2 230 -1 309 -6 80 -5 156 -6 170 -2 54 13 56 25 63 387 l6 334 83
-3 c77 -3 85 -2 108 21 14 14 27 40 30 58 12 80 46 698 46 842 0 154 -1 158
-25 182 l-24 25 -751 0 -751 0 -24 -25z m1516 -39 c3 -3 -5 -150 -18 -328 -12
-178 -22 -343 -22 -367 l-1 -44 -267 7 c-148 3 -321 9 -385 13 l-118 6 0 -161
0 -162 270 0 270 0 0 -118 c0 -66 -3 -161 -7 -212 l-6 -93 -349 7 -348 8 0
-613 0 -612 -187 6 c-104 4 -216 7 -250 7 l-63 0 0 1330 0 1330 738 0 c406 0
741 -2 743 -4z"/>
<path d="M10971 3863 c-26 -26 -76 -79 -110 -117 l-61 -68 0 -155 c0 -128 5
-185 31 -330 16 -96 34 -185 38 -196 5 -12 0 -458 -11 -992 -10 -533 -16 -989
-13 -1011 10 -74 4 -72 400 -110 370 -35 383 -34 405 6 23 43 8 321 -60 1166
-38 475 -70 875 -70 889 0 20 7 29 30 36 22 8 32 20 40 47 15 56 13 760 -3
791 -16 33 -40 38 -277 61 -113 11 -224 22 -248 26 -41 5 -45 3 -91 -43z m288
-33 c119 -11 231 -23 249 -26 l32 -5 -2 -252 -3 -252 -304 -8 c-167 -4 -306
-5 -309 -2 -3 2 -19 87 -37 187 l-32 183 90 98 c49 53 92 97 95 97 3 0 102 -9
221 -20z m187 -835 c6 -2 16 -61 22 -147 68 -841 132 -1662 128 -1665 -4 -4
-664 56 -684 63 -10 3 -12 22 -8 81 3 43 11 434 17 868 6 435 12 796 15 803 3
9 57 11 251 6 136 -3 253 -7 259 -9z"/>
<path d="M13125 3888 c-24 -22 -34 -61 -153 -660 -69 -351 -129 -638 -132
-638 -3 0 -74 262 -159 583 -85 320 -160 594 -167 608 -7 15 -21 29 -29 33 -9
3 -181 6 -381 6 -351 0 -365 -1 -384 -20 -19 -19 -20 -33 -20 -506 l0 -487 35
-33 35 -33 -20 -698 c-11 -384 -20 -796 -20 -916 l0 -218 25 -25 25 -25 275 3
c247 3 276 5 292 21 27 26 27 133 3 976 -11 409 -19 745 -18 747 2 1 81 -381
176 -849 199 -986 169 -897 303 -897 72 0 82 3 104 25 14 13 25 28 25 32 1 21
248 1114 253 1120 4 3 9 4 11 2 2 -2 -2 -168 -10 -369 -7 -201 -13 -458 -14
-571 0 -202 0 -206 23 -227 23 -22 30 -22 306 -22 l282 0 24 25 c24 23 25 28
25 172 0 81 -14 720 -30 1418 -16 699 -30 1298 -30 1333 0 53 -4 67 -25 87
l-24 25 -290 0 c-286 0 -290 0 -316 -22z m599 -220 c4 -101 13 -507 21 -903 9
-396 20 -895 25 -1110 5 -214 10 -409 10 -432 l0 -43 -270 0 -270 0 0 78 c1
42 9 304 19 582 10 278 16 508 12 512 -3 4 -33 10 -66 13 l-60 7 -129 -579
c-71 -318 -131 -584 -134 -591 -3 -9 -24 -12 -75 -10 l-71 3 -18 85 c-10 47
-92 450 -183 895 -91 446 -168 818 -171 827 -6 20 -92 94 -99 86 -5 -5 28
-1390 41 -1730 l6 -168 -263 0 -262 0 6 268 c10 384 36 1402 39 1504 l3 86
-43 23 -42 24 2 335 3 335 355 0 354 0 190 -717 c105 -395 193 -714 197 -710
3 4 73 346 155 760 l148 752 282 0 282 0 6 -182z"/>
<path d="M13915 3885 l-25 -24 0 -1481 0 -1481 26 -26 c22 -22 31 -25 72 -20
26 3 337 25 692 49 626 41 646 43 668 65 l22 22 0 511 0 511 -25 24 -24 25
-386 0 -385 0 0 200 0 200 235 0 236 0 24 25 25 24 0 346 0 345 155 0 c152 0
156 1 180 25 l25 24 0 306 0 306 -25 24 -24 25 -721 0 -721 0 -24 -25z m1455
-195 l0 -160 -555 0 -555 0 0 -135 0 -135 378 -2 377 -3 0 -235 0 -235 -262
-3 -263 -2 0 -390 0 -390 410 0 410 0 0 -365 c0 -285 -3 -365 -12 -365 -7 0
-308 -20 -668 -45 -360 -25 -661 -45 -667 -45 -10 0 -13 274 -13 1335 l0 1335
710 0 710 0 0 -160z"/>
</g>
</svg>
